<svg width="512" height="512" viewBox="0 0 512 512" fill="none" xmlns="http://www.w3.org/2000/svg">
  <!-- ScrubBuddy App Icon 512x512 - Light Background -->
  <rect width="512" height="512" rx="115" fill="#f8fafc"/>
  <ellipse cx="256" cy="269" rx="141" ry="154" fill="url(#bodyGrad)"/>
  <ellipse cx="256" cy="115" rx="96" ry="90" fill="url(#bodyGrad)"/>
  <circle cx="217" cy="103" r="16" fill="#0f172a"/>
  <circle cx="295" cy="103" r="16" fill="#0f172a"/>
  <circle cx="223" cy="97" r="6" fill="white" opacity="0.85"/>
  <circle cx="301" cy="97" r="6" fill="white" opacity="0.85"/>
  <path d="M217 148C217 148 237 175 256 175C275 175 295 148 295 148" stroke="#0f172a" stroke-width="14" stroke-linecap="round"/>
  <path d="M256 192L371 154V268C371 357 320 400 256 425C192 400 141 357 141 268V154L256 192Z" fill="#f1f5f9" stroke="#cbd5e1" stroke-width="8"/>
  <rect x="243" y="212" width="26" height="173" rx="8" fill="#334155"/>
  <path d="M256 378C256 378 295 358 295 338C295 318 217 318 217 298C217 278 295 278 295 258C295 248 256 228 256 228" stroke="#334155" stroke-width="16" stroke-linecap="round" fill="none"/>
  <circle cx="256" cy="212" r="22" fill="#334155"/>
  <circle cx="249" cy="205" r="7" fill="#64748b"/>
  <line x1="166" y1="230" x2="141" y2="280" stroke="#0f172a" stroke-width="18" stroke-linecap="round"/>
  <line x1="346" y1="230" x2="371" y2="280" stroke="#0f172a" stroke-width="18" stroke-linecap="round"/>
  <circle cx="138" cy="288" r="28" fill="url(#bodyGrad)"/>
  <circle cx="374" cy="288" r="28" fill="url(#bodyGrad)"/>
  <ellipse cx="218" cy="445" rx="38" ry="26" fill="#3b82f6"/>
  <ellipse cx="294" cy="445" rx="38" ry="26" fill="#3b82f6"/>
  <defs>
    <linearGradient id="bodyGrad" x1="0%" y1="0%" x2="100%" y2="100%">
      <stop offset="0%" style="stop-color:#60a5fa"/>
      <stop offset="100%" style="stop-color:#a78bfa"/>
    </linearGradient>
  </defs>
</svg>
