<svg width="360" height="100" viewBox="0 0 360 100" fill="none" xmlns="http://www.w3.org/2000/svg">
  <!-- ScrubBuddy Logo with Tagline - Light Background -->
  <ellipse cx="50" cy="50" rx="29" ry="32" fill="url(#bodyGrad)"/>
  <ellipse cx="50" cy="18" rx="20" ry="18" fill="url(#bodyGrad)"/>
  <circle cx="42" cy="16" r="3.2" fill="#0f172a"/>
  <circle cx="58" cy="16" r="3.2" fill="#0f172a"/>
  <circle cx="43.2" cy="14.7" r="1.2" fill="white" opacity="0.85"/>
  <circle cx="59.2" cy="14.7" r="1.2" fill="white" opacity="0.85"/>
  <path d="M42 25C42 25 46 30 50 30C54 30 58 25 58 25" stroke="#0f172a" stroke-width="2.3" stroke-linecap="round"/>
  <path d="M50 35L77 28V53C77 65 64 73 50 77C36 73 23 65 23 53V28L50 35Z" fill="#f1f5f9" stroke="#cbd5e1" stroke-width="1.8"/>
  <rect x="47" y="38" width="5" height="31" rx="1.5" fill="#334155"/>
  <path d="M49.5 67C49.5 67 56 64 56 60C56 56 43 56 43 53C43 49 56 49 56 46C56 44 49.5 40 49.5 40" stroke="#334155" stroke-width="2.8" stroke-linecap="round" fill="none"/>
  <circle cx="49.5" cy="38" r="3.7" fill="#334155"/>
  <circle cx="48" cy="37" r="1" fill="#64748b"/>
  <line x1="27" y1="39" x2="23" y2="48" stroke="#0f172a" stroke-width="2.8" stroke-linecap="round"/>
  <line x1="73" y1="39" x2="77" y2="48" stroke="#0f172a" stroke-width="2.8" stroke-linecap="round"/>
  <circle cx="22" cy="50" r="4.5" fill="url(#bodyGrad)"/>
  <circle cx="78" cy="50" r="4.5" fill="url(#bodyGrad)"/>
  <ellipse cx="38" cy="82" rx="7" ry="4.5" fill="#3b82f6"/>
  <ellipse cx="62" cy="82" rx="7" ry="4.5" fill="#3b82f6"/>
  <text x="105" y="48" font-family="'Plus Jakarta Sans', -apple-system, sans-serif" font-weight="700" font-size="29" fill="#0f172a">Scrub</text>
  <text x="205" y="48" font-family="'Plus Jakarta Sans', -apple-system, sans-serif" font-weight="700" font-size="29" fill="#3b82f6">Buddy</text>
  <text x="105" y="70" font-family="'Plus Jakarta Sans', -apple-system, sans-serif" font-weight="500" font-size="11" fill="#64748b" letter-spacing="1.5">YOUR CLINICAL YEAR SIDEKICK</text>
  <defs>
    <linearGradient id="bodyGrad" x1="0%" y1="0%" x2="100%" y2="100%">
      <stop offset="0%" style="stop-color:#60a5fa"/>
      <stop offset="100%" style="stop-color:#a78bfa"/>
    </linearGradient>
  </defs>
</svg>
