<svg width="360" height="95" viewBox="0 0 360 95" fill="none" xmlns="http://www.w3.org/2000/svg">
  <!-- ScrubBuddy Primary Logo - Light Background -->
  <ellipse cx="50" cy="52" rx="29" ry="32" fill="url(#bodyGrad)"/>
  <ellipse cx="50" cy="20" rx="20" ry="18" fill="url(#bodyGrad)"/>
  <circle cx="42" cy="18" r="3.2" fill="#0f172a"/>
  <circle cx="58" cy="18" r="3.2" fill="#0f172a"/>
  <circle cx="43.2" cy="16.7" r="1.2" fill="white" opacity="0.85"/>
  <circle cx="59.2" cy="16.7" r="1.2" fill="white" opacity="0.85"/>
  <path d="M42 27C42 27 46 32 50 32C54 32 58 27 58 27" stroke="#0f172a" stroke-width="2.3" stroke-linecap="round"/>
  <path d="M50 37L77 30V55C77 67 64 75 50 79C36 75 23 67 23 55V30L50 37Z" fill="#f1f5f9" stroke="#cbd5e1" stroke-width="1.8"/>
  <rect x="47" y="40" width="5" height="31" rx="1.5" fill="#334155"/>
  <path d="M49.5 69C49.5 69 56 66 56 62C56 58 43 58 43 55C43 51 56 51 56 48C56 46 49.5 42 49.5 42" stroke="#334155" stroke-width="2.8" stroke-linecap="round" fill="none"/>
  <circle cx="49.5" cy="40" r="3.7" fill="#334155"/>
  <circle cx="48" cy="39" r="1" fill="#64748b"/>
  <line x1="27" y1="41" x2="23" y2="50" stroke="#0f172a" stroke-width="2.8" stroke-linecap="round"/>
  <line x1="73" y1="41" x2="77" y2="50" stroke="#0f172a" stroke-width="2.8" stroke-linecap="round"/>
  <circle cx="22" cy="52" r="4.5" fill="url(#bodyGrad)"/>
  <circle cx="78" cy="52" r="4.5" fill="url(#bodyGrad)"/>
  <ellipse cx="38" cy="84" rx="7" ry="4.5" fill="#3b82f6"/>
  <ellipse cx="62" cy="84" rx="7" ry="4.5" fill="#3b82f6"/>
  <text x="105" y="55" font-family="'Plus Jakarta Sans', -apple-system, sans-serif" font-weight="700" font-size="29" fill="#0f172a">Scrub</text>
  <text x="205" y="55" font-family="'Plus Jakarta Sans', -apple-system, sans-serif" font-weight="700" font-size="29" fill="#3b82f6">Buddy</text>
  <defs>
    <linearGradient id="bodyGrad" x1="0%" y1="0%" x2="100%" y2="100%">
      <stop offset="0%" style="stop-color:#60a5fa"/>
      <stop offset="100%" style="stop-color:#a78bfa"/>
    </linearGradient>
  </defs>
</svg>
