<svg width="110" height="110" viewBox="0 0 110 110" fill="none" xmlns="http://www.w3.org/2000/svg">
  <!-- ScrubBuddy Mascot Only - Dark Background -->
  <ellipse cx="55" cy="55" rx="32" ry="35" fill="url(#bodyGrad)"/>
  <ellipse cx="55" cy="22" rx="22" ry="20" fill="url(#bodyGrad)"/>
  <circle cx="46" cy="20" r="3.5" fill="#0f172a"/>
  <circle cx="64" cy="20" r="3.5" fill="#0f172a"/>
  <circle cx="47.3" cy="18.5" r="1.3" fill="white" opacity="0.85"/>
  <circle cx="65.3" cy="18.5" r="1.3" fill="white" opacity="0.85"/>
  <path d="M46 30C46 30 50.5 35 55 35C59.5 35 64 30 64 30" stroke="#0f172a" stroke-width="2.5" stroke-linecap="round"/>
  <path d="M55 40L85 32V60C85 74 71 83 55 87C39 83 25 74 25 60V32L55 40Z" fill="url(#shieldGrad)" stroke="#94a3b8" stroke-width="2"/>
  <rect x="52" y="44" width="5" height="34" rx="1.5" fill="#475569"/>
  <path d="M54.5 76C54.5 76 62 72 62 68C62 64 47 64 47 60C47 56 62 56 62 52C62 50 54.5 46 54.5 46" stroke="#475569" stroke-width="3" stroke-linecap="round" fill="none"/>
  <circle cx="54.5" cy="44" r="4" fill="#475569"/>
  <circle cx="53" cy="43" r="1" fill="#94a3b8"/>
  <line x1="30" y1="45" x2="25" y2="55" stroke="#0f172a" stroke-width="3" stroke-linecap="round"/>
  <line x1="80" y1="45" x2="85" y2="55" stroke="#0f172a" stroke-width="3" stroke-linecap="round"/>
  <circle cx="24" cy="57" r="5" fill="url(#bodyGrad)"/>
  <circle cx="86" cy="57" r="5" fill="url(#bodyGrad)"/>
  <ellipse cx="42" cy="97" rx="8" ry="5" fill="#3b82f6"/>
  <ellipse cx="68" cy="97" rx="8" ry="5" fill="#3b82f6"/>
  <defs>
    <linearGradient id="bodyGrad" x1="0%" y1="0%" x2="100%" y2="100%">
      <stop offset="0%" style="stop-color:#60a5fa"/>
      <stop offset="100%" style="stop-color:#a78bfa"/>
    </linearGradient>
    <linearGradient id="shieldGrad" x1="0%" y1="0%" x2="100%" y2="100%">
      <stop offset="0%" style="stop-color:#f8fafc"/>
      <stop offset="100%" style="stop-color:#e2e8f0"/>
    </linearGradient>
  </defs>
</svg>
